<svg width="150" height="150" viewBox="0 0 150 150" fill="none" xmlns="http://www.w3.org/2000/svg">
<path d="M100 50H50V100H100V50ZM83.3333 83.3333H66.6667V66.6667H83.3333V83.3333ZM150 66.6667V50H133.333V33.3333C133.333 24.1667 125.833 16.6667 116.667 16.6667H100V0H83.3333V16.6667H66.6667V0H50V16.6667H33.3333C24.1667 16.6667 16.6667 24.1667 16.6667 33.3333V50H0V66.6667H16.6667V83.3333H0V100H16.6667V116.667C16.6667 125.833 24.1667 133.333 33.3333 133.333H50V150H66.6667V133.333H83.3333V150H100V133.333H116.667C125.833 133.333 133.333 125.833 133.333 116.667V100H150V83.3333H133.333V66.6667H150ZM116.667 116.667H33.3333V33.3333H116.667V116.667Z" fill="url(#paint0_linear_3_6)"/>
<defs>
<linearGradient id="paint0_linear_3_6" x1="-1.2964e-08" y1="54" x2="193" y2="54" gradientUnits="userSpaceOnUse">
<stop stop-color="#56CCF2"/>
<stop stop-color="#45ABF0" stop-opacity="0.559363"/>
<stop offset="0.0001" stop-color="#56CCF2"/>
<stop offset="0.952315" stop-color="#2F80ED"/>
</linearGradient>
</defs>
</svg>
